Patient4_TMGait_0pt7_01_left_07_GRF.mot
version=1
nRows=66
nColumns=19
inDegrees=no
endheader
time	F1x	F1y	F1z	M1x	M1y	M1z	F2x	F2y	F2z	M2x	M2y	M2z	EC1x	EC1y	EC1z	EC2x	EC2y	EC2z
8.06	3.0831	-22.522	-5.4732	6.5721	4.0068	-11.4214	18.3827	809.2136	-105.7092	276.0876	113.3731	809.4206	-0.0592	0.0182	-0.0073	-0.0462	0.0165	0.9585
8.0715	2.0272	-12.5653	-3.2686	3.45	2.2348	-5.2049	5.5611	799.3673	-93.8479	275.0878	102.7483	803.1672	-0.0592	0.0182	-0.0073	-0.0462	0.0165	0.9585
8.083	1.0633	-4.0483	-1.5125	0.81281	0.82648	0.25117	-4.6038	791.6926	-83.8425	274.5846	93.3485	797.2937	-0.0592	0.0182	-0.0073	-0.0462	0.0165	0.9585
8.0945	0.27735	2.5456	-0.24505	-1.2069	-0.18617	4.6092	-11.5219	786.6217	-76.1206	274.5804	85.5831	792.0619	-0.0592	0.0182	-0.0073	-0.0462	0.0165	0.9585
8.106	-0.28555	7.1679	0.57455	-2.613	-0.83229	7.73	-15.2495	783.7957	-70.7816	274.918	79.6082	787.2694	-0.0592	0.0182	-0.0073	-0.0462	0.0165	0.9585
8.1175	-0.67549	10.0884	1.0532	-3.4951	-1.2107	9.7664	-16.3347	782.5433	-67.4546	275.4002	75.1869	782.6088	-0.0592	0.0182	-0.0073	-0.0462	0.0165	0.9585
8.129	-0.90268	11.6765	1.2749	-3.9704	-1.3823	10.8975	-15.4178	781.9403	-65.7313	275.7846	72.0459	777.5337	-0.0592	0.0182	-0.0073	-0.0462	0.0165	0.9585
8.1405	-1.0512	12.2622	1.3564	-4.1376	-1.458	11.3275	-13.1654	781.1735	-65.1124	275.8724	69.8129	771.6065	-0.0592	0.0182	-0.0073	-0.0462	0.0165	0.9585
8.152	-1.1254	12.1208	1.3517	-4.0787	-1.4704	11.1725	-10.08	779.5502	-65.1797	275.5011	68.1589	764.4101	-0.0592	0.0182	-0.0073	-0.0462	0.0165	0.9585
8.1635	-1.1835	11.4099	1.3254	-3.8327	-1.4784	10.5097	-6.6056	776.5458	-65.6304	274.5517	66.8525	755.6631	-0.0592	0.0182	-0.0073	-0.0462	0.0165	0.9585
8.175	-1.2182	10.1656	1.294	-3.4036	-1.4808	9.2784	-2.9604	771.9239	-66.2127	272.9843	65.6678	745.2811	-0.0592	0.0182	-0.0073	-0.0462	0.0165	0.9585
8.1865	-1.2366	8.3817	1.2627	-2.7772	-1.4776	7.4426	0.66668	765.6666	-66.8418	270.8173	64.5406	733.3636	-0.0592	0.0182	-0.0073	-0.0462	0.0165	0.9585
8.198	-1.203	5.9896	1.2294	-1.9256	-1.4489	4.8846	4.2316	758.012	-67.3844	268.15	63.3332	720.1974	-0.0592	0.0182	-0.0073	-0.0462	0.0165	0.9585
8.2095	-1.0916	3.004	1.1564	-0.84962	-1.3435	1.6172	7.74	749.3782	-67.8577	265.1242	62.05	706.2544	-0.0592	0.0182	-0.0073	-0.0462	0.0165	0.9585
8.221	-0.81902	-0.48893	1.03	0.4144	-1.1113	-2.2667	11.1948	740.1457	-68.1983	261.8713	60.6255	691.9281	-0.0592	0.0182	-0.0073	-0.0462	0.0165	0.9585
8.2325	-0.33824	-4.1364	0.78068	1.7317	-0.65856	-6.3565	14.6576	730.6819	-68.467	258.4967	59.1061	677.6279	-0.0592	0.0182	-0.0073	-0.0462	0.0165	0.9585
8.244	0.43527	-7.2652	0.39684	2.8426	0.066641	-9.8787	18.1188	721.1141	-68.6877	255.0276	57.5129	663.5082	-0.0592	0.0182	-0.0073	-0.0462	0.0165	0.9585
8.2555	1.5457	-8.669	-0.18485	3.293	1.1486	-11.4503	21.5752	711.5135	-68.933	251.457	55.9219	649.6825	-0.0592	0.0182	-0.0073	-0.0462	0.0165	0.9585
8.267	3.0046	-6.5655	-0.94145	2.4179	2.572	-9.0513	24.9693	701.8101	-69.2731	247.7336	54.4228	636.1419	-0.0592	0.0182	-0.0073	-0.0462	0.0165	0.9585
8.2785	4.7397	1.518	-1.8574	-0.69407	4.284	0.13973	28.2036	691.8059	-69.7327	243.7734	53.0814	622.7637	-0.0592	0.0182	-0.0073	-0.0462	0.0165	0.9585
8.29	6.5489	18.5911	-2.8046	-7.1445	6.0566	19.5437	31.1586	681.2033	-70.3135	239.47	51.9646	609.3643	-0.0592	0.0182	-0.0073	-0.0462	0.0165	0.9585
8.3015	7.9972	47.9169	-3.5884	-18.1158	7.4891	52.895	33.6711	669.3907	-70.8768	234.6371	51.0317	595.473	-0.0592	0.0182	-0.0073	-0.0462	0.0165	0.9585
8.313	8.4054	92.3367	-3.8599	-34.6161	7.914	103.4379	35.5672	655.4208	-71.2005	228.9876	50.1796	580.3269	-0.0592	0.0182	-0.0073	-0.0462	0.0165	0.9585
8.3245	6.7167	153.1749	-3.1053	-57.0756	6.3418	172.7146	36.7017	637.9377	-70.9036	222.1148	49.149	562.7502	-0.0592	0.0182	-0.0073	-0.0462	0.0165	0.9585
8.336	1.5822	228.8746	-0.6564	-84.8438	1.5144	258.9868	36.9471	615.392	-69.5803	213.5517	47.6538	541.3991	-0.0592	0.0182	-0.0073	-0.0462	0.0165	0.9585
8.3475	-7.8153	314.2615	4.2435	-115.9297	-7.7012	356.4051	36.2878	586.3103	-66.8442	202.8631	45.379	514.9138	-0.0592	0.0182	-0.0073	-0.0462	0.0165	0.9585
8.359	-20.457	401.3978	12.1864	-147.3739	-21.5198	455.7184	34.76	549.7901	-62.4714	189.7925	42.1236	482.4202	-0.0592	0.0182	-0.0073	-0.0462	0.0165	0.9585
8.3705	-34.1529	482.6151	22.6189	-176.4273	-38.438	547.7693	32.5324	505.6255	-56.5162	174.3003	37.8647	443.5703	-0.0592	0.0182	-0.0073	-0.0462	0.0165	0.9585
8.382	-46.8648	554.2002	34.3006	-201.7748	-56.2826	627.9373	29.7727	454.4802	-49.3394	156.5972	32.8214	398.8105	-0.0592	0.0182	-0.0073	-0.0462	0.0165	0.9585
8.3935	-57.4259	615.5581	45.9551	-223.2612	-73.1371	695.383	26.6624	397.6466	-41.5889	137.0782	27.4438	349.1172	-0.0592	0.0182	-0.0073	-0.0462	0.0165	0.9585
8.405	-64.8544	667.6145	56.359	-241.2817	-87.2973	751.0959	23.2312	337.0373	-33.9391	116.3265	22.2438	296.1137	-0.0592	0.0182	-0.0073	-0.0462	0.0165	0.9585
8.4165	-68.8972	710.9153	64.7195	-256.0768	-97.7739	795.9346	19.5152	275.0265	-26.8847	95.0954	17.5908	241.8423	-0.0592	0.0182	-0.0073	-0.0462	0.0165	0.9585
8.428	-69.5334	745.1231	70.7035	-267.5441	-104.2195	829.6638	15.4896	214.4529	-20.6787	74.3166	13.6751	188.8051	-0.0592	0.0182	-0.0073	-0.0462	0.0165	0.9585
8.4395	-67.1887	769.7476	74.5821	-275.4684	-107.1022	852.1173	11.3686	158.3062	-15.4032	55.0024	10.4957	139.6072	-0.0592	0.0182	-0.0073	-0.0462	0.0165	0.9585
8.451	-62.4174	784.5952	76.7882	-279.7389	-107.1596	863.3176	7.4156	109.2863	-11.0314	38.086	7.9457	96.6354	-0.0592	0.0182	-0.0073	-0.0462	0.0165	0.9585
8.4625	-56.0846	790.2134	77.9812	-280.4873	-105.4498	864.2605	4.0581	69.21	-7.51	24.2114	5.8748	61.469	-0.0592	0.0182	-0.0073	-0.0462	0.0165	0.9585
8.474	-48.8102	787.6377	78.6523	-278.0746	-102.7925	856.3547	1.4967	38.7102	-4.732	13.6197	4.1563	34.682	-0.0592	0.0182	-0.0073	-0.0462	0.0165	0.9585
8.4855	-41.3668	778.425	79.2153	-273.0681	-99.9286	841.5351	-0.17922	17.3275	-2.6017	6.1697	2.7151	15.8542	-0.0592	0.0182	-0.0073	-0.0462	0.0165	0.9585
8.497	-34.2178	764.1841	79.8415	-266.1147	-97.2425	821.6276	-1.1455	3.8051	-1.0739	1.4368	1.5869	3.9191	-0.0592	0.0182	-0.0073	-0.0462	0.0165	0.9585
8.5085	-27.7824	746.8159	80.454	-257.9833	-94.8209	798.7532	-1.5712	-3.6071	-0.11033	-1.1745	0.80616	-2.6585	-0.0592	0.0182	-0.0073	-0.0462	0.0165	0.9585
8.52	-22.1855	728.3117	80.8719	-249.5001	-92.5378	774.9426	-1.6604	-6.6787	0.41212	-2.2735	0.33288	-5.3833	-0.0592	0.0182	-0.0073	-0.0462	0.0165	0.9585
8.5315	-17.4805	710.6453	80.8853	-241.4657	-90.206	752.2465	-1.5387	-7.0143	0.63524	-2.4106	0.077258	-5.6889	-0.0592	0.0182	-0.0073	-0.0462	0.0165	0.9585
8.543	-13.6173	695.3627	80.5296	-234.5022	-87.8441	732.1485	-1.3377	-5.8155	0.6471	-2.0059	-0.0025058	-4.6186	-0.0592	0.0182	-0.0073	-0.0462	0.0165	0.9585
8.5545	-10.6142	683.5575	79.8177	-229.0417	-85.4605	715.7049	-1.1059	-3.9965	0.55691	-1.3735	0.00094187	-3.0086	-0.0592	0.0182	-0.0073	-0.0462	0.0165	0.9585
8.566	-8.3157	675.9428	78.8596	-225.3498	-83.1075	703.5364	-0.90112	-2.0966	0.40418	-0.70785	0.063904	-1.315	-0.0592	0.0182	-0.0073	-0.0462	0.0165	0.9585
8.5775	-6.6963	672.8974	77.6562	-223.5539	-80.7615	695.9508	-0.72182	-0.45453	0.24814	-0.12549	0.12938	0.13181	-0.0592	0.0182	-0.0073	-0.0462	0.0165	0.9585
8.589	-5.5712	674.486	76.2297	-223.6525	-78.3742	692.9012	-0.59378	0.81888	0.099531	0.3291	0.19908	1.2476	-0.0592	0.0182	-0.0073	-0.0462	0.0165	0.9585
8.6005	-4.7861	680.5503	74.597	-225.5443	-75.9024	694.1997	-0.49104	1.6921	-0.020273	0.64669	0.24773	1.9814	-0.0592	0.0182	-0.0073	-0.0462	0.0165	0.9585
8.612	-4.1479	690.579	72.8111	-229.003	-73.326	699.2367	-0.43972	2.2384	-0.11409	0.84884	0.29113	2.4281	-0.0592	0.0182	-0.0073	-0.0462	0.0165	0.9585
8.6235	-3.499	703.8158	70.994	-233.6975	-70.7026	707.2539	-0.39809	2.5248	-0.17794	0.95978	0.32247	2.6406	-0.0592	0.0182	-0.0073	-0.0462	0.0165	0.9585
8.635	-2.6423	719.1574	69.2485	-239.1869	-68.0628	717.1212	-0.39089	2.6503	-0.21192	1.0114	0.35535	2.7321	-0.0592	0.0182	-0.0073	-0.0462	0.0165	0.9585
8.6465	-1.5038	735.4042	67.6986	-244.9914	-65.4962	727.6715	-0.37161	2.6859	-0.22817	1.0284	0.38908	2.75	-0.0592	0.0182	-0.0073	-0.0462	0.0165	0.9585
8.658	0.045831	751.2763	66.4125	-250.6193	-63.0342	737.6737	-0.38167	2.6995	-0.21694	1.0347	0.40765	2.7773	-0.0592	0.0182	-0.0073	-0.0462	0.0165	0.9585
8.6695	1.9517	765.6101	65.4422	-255.63	-60.754	746.0817	-0.37681	2.7252	-0.20079	1.0425	0.41416	2.8288	-0.0592	0.0182	-0.0073	-0.0462	0.0165	0.9585
8.681	4.1558	777.3965	64.821	-259.6591	-58.7202	751.98	-0.4063	2.7913	-0.17614	1.0613	0.41268	2.9428	-0.0592	0.0182	-0.0073	-0.0462	0.0165	0.9585
8.6925	6.5554	785.9434	64.5031	-262.4729	-56.9412	754.8074	-0.42649	2.8835	-0.15515	1.0881	0.40569	3.0876	-0.0592	0.0182	-0.0073	-0.0462	0.0165	0.9585
8.704	9.0807	790.872	64.4529	-263.97	-55.4223	754.2198	-0.48139	3.0102	-0.13873	1.1245	0.40556	3.2842	-0.0592	0.0182	-0.0073	-0.0462	0.0165	0.9585
8.7155	11.681	792.1388	64.5565	-264.1825	-54.0858	750.2073	-0.53994	3.1173	-0.13382	1.1538	0.41392	3.4501	-0.0592	0.0182	-0.0073	-0.0462	0.0165	0.9585
8.727	14.4049	789.9816	64.7325	-263.2509	-52.8478	742.9593	-0.63588	3.1635	-0.14381	1.1587	0.44698	3.5526	-0.0592	0.0182	-0.0073	-0.0462	0.0165	0.9585
8.7385	17.2517	784.9222	64.8512	-261.4155	-51.5871	732.9299	-0.74279	3.0393	-0.17548	1.103	0.51179	3.4381	-0.0592	0.0182	-0.0073	-0.0462	0.0165	0.9585
8.75	20.3134	777.6592	64.8337	-258.9765	-50.2038	720.7224	-0.88197	2.6633	-0.23709	0.95197	0.62378	3.0168	-0.0592	0.0182	-0.0073	-0.0462	0.0165	0.9585
8.7615	23.643	769.0916	64.591	-256.29	-48.5968	707.1448	-1.0145	1.9016	-0.33035	0.65537	0.77012	2.1147	-0.0592	0.0182	-0.0073	-0.0462	0.0165	0.9585
8.773	27.3167	760.2027	64.0953	-253.724	-46.7076	693.064	-1.1409	0.68444	-0.45455	0.17776	0.94667	0.66594	-0.0592	0.0182	-0.0073	-0.0462	0.0165	0.9585
8.7845	31.3781	752.043	63.3565	-251.6369	-44.5166	679.4539	-1.2095	-1.0774	-0.60531	-0.51429	1.1261	-1.4444	-0.0592	0.0182	-0.0073	-0.0462	0.0165	0.9585
8.796	35.8146	745.5841	62.4601	-250.3267	-42.0799	667.2133	-1.1732	-3.3502	-0.75803	-1.4118	1.2628	-4.1538	-0.0592	0.0182	-0.0073	-0.0462	0.0165	0.9585
8.8075	40.5009	741.5721	61.584	-249.9773	-39.5573	657.1073	-0.93074	-6.0098	-0.87286	-2.461	1.272	-7.3201	-0.0592	0.0182	-0.0073	-0.0462	0.0165	0.9585
